# xmcd
#
# Track frame offsets:
#	150
#	14574
#	28958
#	46015
#	65073
#	96372
#	112327
#	130459
#	147637
#	169867
#	185259
#	203251
#	235806
#	255459
#	270948
#
# Disc length: 3915 seconds
#
# Revision: 1
# Processed by: cddbd v1.5.2PL0 Copyright (c) Steve Scherf et al.
# Submitted via: audiograbber 1.83.01
#
DISCID=da0f490f
DTITLE=The Spinners - The Definitive Soul Collection [Disc 1]
DYEAR=2006
DGENRE=Rhythmic Soul
TTITLE0=It's A Shame
TTITLE1=I'll Be Around
TTITLE2=How Could I Let You Get Away
TTITLE3=Could It Be I'm Falling In Love
TTITLE4=I Could Never (Repay Your Love)
TTITLE5=One Of A Kind (Love Affair)
TTITLE6=Don't Let The Green Grass Fool You
TTITLE7=Ghetto Child
TTITLE8=Mighty Love
TTITLE9=I'm Coming Home
TTITLE10=Then Came You (with Dionne Warwick)
TTITLE11=Love Don't Love Nobody
TTITLE12=Since I Been Gone
TTITLE13=I've Got To Make It On My Own
TTITLE14=Living A Little, Laughing A Little
EXTD=
EXTT0=
EXTT1=
EXTT2=
EXTT3=
EXTT4=
EXTT5=
EXTT6=
EXTT7=
EXTT8=
EXTT9=
EXTT10=
EXTT11=
EXTT12=
EXTT13=
EXTT14=
PLAYORDER=
